<svg width="25" height="25" viewBox="0 0 25 25" fill="none" xmlns="http://www.w3.org/2000/svg">
<g clip-path="url(#clip0_1_7028)">
<path d="M22.6187 7.16121C22.4999 6.68662 22.258 6.25178 21.9174 5.90062C21.5767 5.54945 21.1495 5.2944 20.6787 5.16121C18.9587 4.74121 12.0787 4.74121 12.0787 4.74121C12.0787 4.74121 5.1987 4.74121 3.4787 5.20121C3.00794 5.3344 2.58067 5.58945 2.24004 5.94062C1.89941 6.29178 1.65749 6.72662 1.5387 7.20121C1.22391 8.94677 1.06993 10.7175 1.0787 12.4912C1.06748 14.2783 1.22146 16.0625 1.5387 17.8212C1.66966 18.2811 1.917 18.6994 2.25684 19.0357C2.59668 19.372 3.01752 19.615 3.4787 19.7412C5.1987 20.2012 12.0787 20.2012 12.0787 20.2012C12.0787 20.2012 18.9587 20.2012 20.6787 19.7412C21.1495 19.608 21.5767 19.353 21.9174 19.0018C22.258 18.6506 22.4999 18.2158 22.6187 17.7412C22.9311 16.0088 23.085 14.2515 23.0787 12.4912C23.0899 10.7042 22.9359 8.91991 22.6187 7.16121Z" stroke="white" strokeWidth="2" strokeLinecap="round" strokeLinejoin="round"/>
<path d="M9.82812 15.7612L15.5781 12.4912L9.82812 9.22119V15.7612Z" stroke="white" strokeWidth="2" strokeLinecap="round" strokeLinejoin="round"/>
</g>
<defs>
<clipPath id="clip0_1_7028">
<rect width="24" height="24" fill="white" transform="translate(0.078125 0.741211)"/>
</clipPath>
</defs>
</svg>
