<svg width="25" height="25" viewBox="0 0 25 25" fill="none" xmlns="http://www.w3.org/2000/svg">
<path d="M17.6172 2.74121H7.61719C4.85576 2.74121 2.61719 4.97979 2.61719 7.74121V17.7412C2.61719 20.5026 4.85576 22.7412 7.61719 22.7412H17.6172C20.3786 22.7412 22.6172 20.5026 22.6172 17.7412V7.74121C22.6172 4.97979 20.3786 2.74121 17.6172 2.74121Z" stroke="white" strokeWidth="2" strokeLinecap="round" strokeLinejoin="round"/>
<path d="M16.6169 12.111C16.7403 12.9433 16.5982 13.7932 16.2107 14.54C15.8232 15.2868 15.21 15.8924 14.4585 16.2707C13.707 16.649 12.8553 16.7806 12.0247 16.647C11.194 16.5133 10.4267 16.1211 9.83173 15.5262C9.23681 14.9313 8.84463 14.1639 8.71096 13.3332C8.5773 12.5026 8.70896 11.6509 9.08722 10.8994C9.46548 10.1479 10.0711 9.53476 10.8179 9.14727C11.5647 8.75977 12.4146 8.61761 13.2469 8.74102C14.0958 8.86691 14.8817 9.26249 15.4886 9.86933C16.0954 10.4762 16.491 11.2621 16.6169 12.111Z" stroke="white" strokeWidth="2" strokeLinecap="round" strokeLinejoin="round"/>
<path d="M18.1172 7.24121H18.1272" stroke="white" strokeWidth="2" strokeLinecap="round" strokeLinejoin="round"/>
</svg>
