<svg width="25" height="25" viewBox="0 0 25 25" fill="none" xmlns="http://www.w3.org/2000/svg">
<path d="M16.5391 8.74121C18.1304 8.74121 19.6565 9.37335 20.7817 10.4986C21.9069 11.6238 22.5391 13.1499 22.5391 14.7412V21.7412H18.5391V14.7412C18.5391 14.2108 18.3283 13.7021 17.9533 13.327C17.5782 12.9519 17.0695 12.7412 16.5391 12.7412C16.0086 12.7412 15.4999 12.9519 15.1248 13.327C14.7498 13.7021 14.5391 14.2108 14.5391 14.7412V21.7412H10.5391V14.7412C10.5391 13.1499 11.1712 11.6238 12.2964 10.4986C13.4216 9.37335 14.9478 8.74121 16.5391 8.74121Z" stroke="white" strokeWidth="2" strokeLinecap="round" strokeLinejoin="round"/>
<path d="M6.53906 9.74121H2.53906V21.7412H6.53906V9.74121Z" stroke="white" strokeWidth="2" strokeLinecap="round" strokeLinejoin="round"/>
<path d="M4.53906 6.74121C5.64363 6.74121 6.53906 5.84578 6.53906 4.74121C6.53906 3.63664 5.64363 2.74121 4.53906 2.74121C3.43449 2.74121 2.53906 3.63664 2.53906 4.74121C2.53906 5.84578 3.43449 6.74121 4.53906 6.74121Z" stroke="white" strokeWidth="2" strokeLinecap="round" strokeLinejoin="round"/>
</svg>
