<svg width="24" height="25" viewBox="0 0 24 25" fill="none" xmlns="http://www.w3.org/2000/svg">
<path d="M23 3.74101C22.0424 4.41649 20.9821 4.93312 19.86 5.27101C19.2577 4.57852 18.4573 4.0877 17.567 3.86494C16.6767 3.64217 15.7395 3.69821 14.8821 4.02547C14.0247 4.35272 13.2884 4.93541 12.773 5.69473C12.2575 6.45404 11.9877 7.35335 12 8.27101V9.27101C10.2426 9.31658 8.50127 8.92683 6.93101 8.13646C5.36074 7.34609 4.01032 6.17965 3 4.74101C3 4.74101 -1 13.741 8 17.741C5.94053 19.139 3.48716 19.8399 1 19.741C10 24.741 21 19.741 21 8.24101C20.9991 7.96247 20.9723 7.68461 20.92 7.41101C21.9406 6.40451 22.6608 5.13373 23 3.74101Z" stroke="white" strokeWidth="2" strokeLinecap="round" strokeLinejoin="round"/>
</svg>
